HIERARCHY
ROOT Hips
{
	OFFSET -0.001795 -0.223333 0.028219
	CHANNELS 6 Xposition Yposition Zposition Zrotation Yrotation Xrotation 
	JOINT LeftUpLeg
	{
		OFFSET 0.069520 -0.091406 -0.006815
		CHANNELS 3 Zrotation Yrotation Xrotation
		JOINT LeftLeg
		{
			OFFSET 0.034277 -0.375199 -0.004496
			CHANNELS 3 Zrotation Yrotation Xrotation
			JOINT LeftFoot
			{
				OFFSET -0.013596 -0.397961 -0.043693
				CHANNELS 3 Zrotation Yrotation Xrotation
				JOINT LeftToe
				{
					OFFSET 0.026358 -0.055791 0.119288
					CHANNELS 3 Zrotation Yrotation Xrotation
					End Site
					{
						OFFSET 0.000000 0.000000 0.000000
					}
				}
			}
		}
	}
	JOINT RightUpLeg
	{
		OFFSET -0.067670 -0.090522 -0.004320
		CHANNELS 3 Zrotation Yrotation Xrotation
		JOINT RightLeg
		{
			OFFSET -0.038290 -0.382569 -0.008850
			CHANNELS 3 Zrotation Yrotation Xrotation
			JOINT RightFoot
			{
				OFFSET 0.015774 -0.398415 -0.042312
				CHANNELS 3 Zrotation Yrotation Xrotation
				JOINT RightToe
				{
					OFFSET -0.025372 -0.048144 0.123348
					CHANNELS 3 Zrotation Yrotation Xrotation
					End Site
					{
						OFFSET 0.000000 0.000000 0.000000
					}
				}
			}
		}
	}
	JOINT Spine
	{
		OFFSET -0.002533 0.108963 -0.026696
		CHANNELS 3 Zrotation Yrotation Xrotation
		JOINT Spine1
		{
			OFFSET 0.005487 0.135180 0.001092
			CHANNELS 3 Zrotation Yrotation Xrotation
			JOINT Spine2
			{
				OFFSET 0.001457 0.052922 0.025425
				CHANNELS 3 Zrotation Yrotation Xrotation
				JOINT Neck
				{
					OFFSET -0.002778 0.213870 -0.042857
					CHANNELS 3 Zrotation Yrotation Xrotation
					JOINT Head
					{
						OFFSET 0.005152 0.064970 0.051349
						CHANNELS 3 Zrotation Yrotation Xrotation
						End Site
						{
							OFFSET 0.000000 0.000000 0.000000
						}
					}
				}
				JOINT LeftShoulder
				{
					OFFSET 0.078845 0.121749 -0.034090
					CHANNELS 3 Zrotation Yrotation Xrotation
					JOINT LeftArm
					{
						OFFSET 0.090977 0.030469 -0.008868
						CHANNELS 3 Zrotation Yrotation Xrotation
						JOINT LeftForeArm
						{
							OFFSET 0.259612 -0.012772 -0.027456
							CHANNELS 3 Zrotation Yrotation Xrotation
							JOINT LeftHand
							{
								OFFSET 0.249234 0.008986 -0.001171
								CHANNELS 3 Zrotation Yrotation Xrotation
								End Site
								{
									OFFSET 0.000000 0.000000 0.000000
								}
							}
						}
					}
				}
				JOINT RightShoulder
				{
					OFFSET -0.081759 0.118833 -0.038615
					CHANNELS 3 Zrotation Yrotation Xrotation
					JOINT RightArm
					{
						OFFSET -0.096012 0.032551 -0.009143
						CHANNELS 3 Zrotation Yrotation Xrotation
						JOINT RightForeArm
						{
							OFFSET -0.253742 -0.013329 -0.021401
							CHANNELS 3 Zrotation Yrotation Xrotation
							JOINT RightHand
							{
								OFFSET -0.255298 0.007772 -0.005559
								CHANNELS 3 Zrotation Yrotation Xrotation
								End Site
								{
									OFFSET 0.000000 0.000000 0.000000
								}
							}
						}
					}
				}
			}
		}
	}
}
MOTION
Frames: 11
Frame Time: 0.050000
0.061302 0.958692 -0.073150 -4.343300 1.377197 8.934106 7.644003 -0.537804 -10.956483 -3.173295 0.346198 -3.353866 2.006020 8.903753 15.697368 0.000000 0.000000 0.000000 -6.927305 0.547136 -5.971489 2.298287 -0.319828 -3.881321 -7.381083 -18.739035 26.759533 0.000000 0.000000 0.000000 -9.670876 1.007322 16.240005 4.554229 -0.874163 -16.707996 2.681952 7.560070 29.072429 -3.630540 5.007782 -32.942874 0.000000 0.000000 0.000000 -18.503378 -12.799043 3.684107 -45.170605 -40.490173 7.620159 9.546710 -28.835220 -1.316605 0.000000 0.000000 0.000000 9.596315 22.856083 11.116195 62.543311 37.514473 13.709537 -13.547387 31.923841 -1.716168 0.000000 0.000000 0.000000 
0.061661 0.958622 -0.074390 -4.473872 1.568932 9.052714 7.635253 -0.552977 -11.300285 -3.119029 0.339960 -3.221948 2.066512 9.017713 15.684611 0.000000 0.000000 0.000000 -6.776417 0.563750 -6.337502 2.284843 -0.316206 -3.712671 -7.288589 -18.583285 26.601149 0.000000 0.000000 0.000000 -9.543153 1.004656 16.904367 4.707675 -0.909017 -16.805939 2.636646 7.481497 28.734673 -3.645466 5.007522 -33.080829 0.000000 0.000000 0.000000 -18.502339 -13.322384 3.949987 -44.576988 -40.471787 7.494667 10.156038 -28.504140 -1.462133 0.000000 0.000000 0.000000 9.994959 23.267504 11.438239 62.403831 38.228774 14.115832 -14.251084 30.866854 -1.843892 0.000000 0.000000 0.000000 
0.061987 0.958607 -0.075697 -4.590003 1.773355 9.265828 7.647489 -0.572329 -11.800633 -3.128240 0.337642 -2.967849 2.221534 9.298693 15.776565 0.000000 0.000000 0.000000 -6.656851 0.589693 -6.878529 2.244404 -0.306477 -3.359065 -7.224775 -18.463420 26.503045 0.000000 0.000000 0.000000 -9.488862 1.006144 17.274726 4.917589 -0.964580 -16.811551 2.589721 7.385698 28.613294 -3.638123 4.996158 -33.311080 0.000000 0.000000 0.000000 -18.372505 -13.498303 4.041174 -44.332583 -40.786740 7.558066 10.697295 -27.973780 -1.566976 0.000000 0.000000 0.000000 10.233013 23.401041 11.587471 62.492783 38.770865 14.493130 -14.848055 30.372345 -1.951836 0.000000 0.000000 0.000000 
0.062284 0.958675 -0.077001 -4.688977 2.065575 9.459645 7.659968 -0.594315 -12.310352 -3.111293 0.333077 -2.778297 2.278484 9.452608 15.904791 0.000000 0.000000 0.000000 -6.574755 0.613460 -7.415328 2.286512 -0.305669 -3.102538 -7.207442 -18.395003 26.543810 0.000000 0.000000 0.000000 -9.426206 1.002573 17.671978 5.115401 -1.015438 -16.782932 2.577680 7.290645 28.437800 -3.660097 5.004747 -33.573969 0.000000 0.000000 0.000000 -18.261179 -13.784647 4.178027 -43.868399 -40.969842 7.515828 11.207850 -27.568699 -1.673667 0.000000 0.000000 0.000000 10.355388 23.700249 11.781439 62.563590 39.387084 14.940715 -15.421923 29.860672 -2.059426 0.000000 0.000000 0.000000 
0.062649 0.958639 -0.078273 -4.734011 2.007269 9.563248 7.602531 -0.605779 -12.622131 -3.133467 0.334331 -2.639972 2.286926 9.461220 15.918319 0.000000 0.000000 0.000000 -6.578706 0.631942 -7.795962 2.507818 -0.316114 -2.732982 -7.153926 -18.329805 26.347797 0.000000 0.000000 0.000000 -9.295459 0.989546 17.887574 5.126991 -1.025168 -16.693647 2.622405 7.402397 28.388477 -3.633429 5.000463 -33.576952 0.000000 0.000000 0.000000 -18.416880 -13.764443 4.142173 -43.505461 -40.964505 7.424046 11.520173 -27.597199 -1.755866 0.000000 0.000000 0.000000 10.626587 23.850666 11.951759 62.611371 39.728276 15.165929 -15.860664 29.747351 -2.142517 0.000000 0.000000 0.000000 
0.063114 0.958593 -0.079456 -4.724960 2.182618 9.696777 7.559760 -0.625305 -13.004183 -3.254661 0.340994 -2.351985 2.352213 9.581060 15.908968 0.000000 0.000000 0.000000 -6.696928 0.643128 -8.162155 2.798809 -0.335689 -2.380746 -7.353803 -18.574140 26.303183 0.000000 0.000000 0.000000 -9.217829 0.980337 18.182205 5.241419 -1.047931 -16.778017 2.584396 7.482888 28.488394 -3.641295 5.027485 -33.915896 0.000000 0.000000 0.000000 -18.123986 -13.949262 4.205486 -43.292145 -41.331457 7.479344 11.989961 -27.647192 -1.883085 0.000000 0.000000 0.000000 10.645833 23.977982 12.053928 62.492975 40.389944 15.565725 -16.544690 29.788847 -2.295743 0.000000 0.000000 0.000000 
0.063683 0.958559 -0.080527 -4.648044 2.309873 9.673815 7.417245 -0.640624 -13.073700 -3.332712 0.345788 -2.213111 2.328290 9.508133 15.658635 0.000000 0.000000 0.000000 -6.753129 0.647181 -8.382852 2.829941 -0.333887 -2.030529 -7.370051 -18.573627 26.060142 0.000000 0.000000 0.000000 -9.067578 0.954006 18.467875 5.255927 -1.044317 -16.837021 2.592885 7.595646 28.529386 -3.653193 5.063102 -33.713216 0.000000 0.000000 0.000000 -18.359793 -14.045450 4.203523 -42.954119 -41.306497 7.381496 12.178024 -27.997611 -1.965125 0.000000 0.000000 0.000000 10.729574 24.017904 12.123581 62.318183 40.592312 15.632941 -16.892914 29.895325 -2.380507 0.000000 0.000000 0.000000 
0.064256 0.958396 -0.081503 -4.574179 2.417443 9.676378 7.263371 -0.659085 -13.241818 -3.352686 0.345905 -2.034062 2.326171 9.517762 15.637837 0.000000 0.000000 0.000000 -6.871979 0.646847 -8.543260 2.994036 -0.346459 -1.811139 -7.480803 -18.708816 26.203286 0.000000 0.000000 0.000000 -9.026366 0.943734 18.593562 5.249367 -1.054039 -16.673982 2.622464 7.710464 28.719052 -3.657262 5.092705 -33.851343 0.000000 0.000000 0.000000 -18.324865 -14.078890 4.172866 -42.912948 -41.759976 7.523587 12.585121 -28.146726 -2.083730 0.000000 0.000000 0.000000 10.565028 24.023875 12.106829 62.150844 41.168180 15.965402 -17.409931 30.094301 -2.507032 0.000000 0.000000 0.000000 
0.064739 0.958342 -0.082356 -4.396833 2.532869 9.650614 7.029824 -0.677986 -13.212678 -3.376707 0.346884 -1.983797 2.210149 9.323196 15.469327 0.000000 0.000000 0.000000 -7.017360 0.644454 -8.715214 2.993824 -0.343298 -1.518843 -7.582030 -18.827196 26.199383 0.000000 0.000000 0.000000 -8.951552 0.928378 18.763003 5.201485 -1.043295 -16.586671 2.555783 7.693866 28.778189 -3.666597 5.105424 -33.935897 0.000000 0.000000 0.000000 -18.373576 -14.141797 4.194041 -42.847470 -42.019402 7.597297 12.924284 -28.450211 -2.193157 0.000000 0.000000 0.000000 10.296248 24.101058 12.061468 61.932411 41.682931 16.242572 -17.799870 30.514911 -2.638599 0.000000 0.000000 0.000000 
0.065070 0.958117 -0.083067 -4.324031 2.554868 9.634023 6.982367 -0.681557 -13.213778 -3.517149 0.358227 -1.960882 2.212533 9.273894 15.226507 0.000000 0.000000 0.000000 -7.121451 0.642637 -8.803359 3.070990 -0.351260 -1.547159 -7.700253 -18.985882 26.470635 0.000000 0.000000 0.000000 -8.933343 0.920183 18.651710 5.232314 -1.057591 -16.508510 2.510792 7.823510 28.978370 -3.737707 5.169674 -33.685995 0.000000 0.000000 0.000000 -18.745399 -14.178849 4.165208 -42.695439 -42.230658 7.631138 12.920293 -28.642324 -2.210141 0.000000 0.000000 0.000000 10.107181 24.020593 11.982966 61.766159 41.989685 16.387415 -18.227381 31.247991 -2.797563 0.000000 0.000000 0.000000 
0.065270 0.958177 -0.083534 -4.194785 2.577428 9.635637 6.840651 -0.689098 -13.106619 -3.536020 0.360129 -2.184056 2.253313 9.363665 15.331420 0.000000 0.000000 0.000000 -7.220203 0.641435 -8.901326 2.920963 -0.336548 -1.507396 -7.785507 -19.097656 26.859428 0.000000 0.000000 0.000000 -8.972477 0.928204 18.667978 5.154104 -1.027855 -16.582266 2.423295 7.802668 28.959221 -3.849334 5.224356 -33.480169 0.000000 0.000000 0.000000 -18.977990 -14.235606 4.186661 -42.542045 -42.299673 7.631460 12.914881 -28.587059 -2.203158 0.000000 0.000000 0.000000 9.926905 24.046549 11.936865 61.438319 42.163265 16.380611 -18.328469 32.238345 -2.914160 0.000000 0.000000 0.000000 
